<?xml version="1.0" encoding="UTF-8"?>
<svg width="32px" height="32px" viewBox="0 0 32 32" version="1.1" xmlns="http://www.w3.org/2000/svg" xmlns:xlink="http://www.w3.org/1999/xlink">
    <title>32/Feature/exterior-features</title>
    <g id="32/Feature/exterior-features" stroke="none" stroke-width="1" fill="none" fill-rule="evenodd">
        <path d="M22.8326386,11.1705835 C26.1937091,11.1705835 28.9183223,13.9066421 28.9183223,17.2818317 C28.9183223,20.117576 26.9945539,22.5016252 24.3864515,23.1913554 L24.3864515,23.1913554 L24.3864515,28.6666667 L21.2791604,28.6666667 L21.2791604,23.1913554 C18.6707233,22.5016252 16.7469548,20.117576 16.7469548,17.2818317 C16.7469548,13.9066421 19.471568,11.1705835 22.8326386,11.1705835 Z M8.48792504,3.34477653 C11.8433039,3.13615962 14.6293532,5.80716209 14.6293532,9.13141622 C14.6293532,10.0190047 14.4306486,10.8600284 14.0754244,11.6121251 C13.7116627,12.3825452 13.7116627,13.2840862 14.0754244,14.0545063 C14.4306486,14.806603 14.6293532,15.6474586 14.6293532,16.5352152 C14.6293532,19.284386 12.7231618,21.5852237 10.1661167,22.1814881 L10.1661167,22.1814881 L10.1661167,28.6665994 L7.5449571,28.6665994 L7.5449571,22.1814881 C4.98791196,21.5852237 3.0816777,19.284386 3.0816777,16.5352152 C3.0816777,15.6474586 3.28042519,14.8062668 3.6358168,14.0541701 C4.00175465,13.2792112 3.99355202,12.3748124 3.62945558,11.599013 C3.24727986,10.7847178 3.04840787,9.86670257 3.08624042,8.89825614 C3.20107728,5.95593402 5.56125924,3.52683303 8.48792504,3.34477653 Z" id="Combined-Shape" fill="#00ADBB" fill-rule="nonzero"></path>
    </g>
</svg>