<?xml version="1.0" encoding="UTF-8"?>
<svg width="32px" height="32px" viewBox="0 0 32 32" version="1.1" xmlns="http://www.w3.org/2000/svg" xmlns:xlink="http://www.w3.org/1999/xlink">
    <title>32/Feature/location</title>
    <g id="32/Feature/location" stroke="none" stroke-width="1" fill="none" fill-rule="evenodd">
        <path d="M17.3643656,14.9280904 C16.6152612,15.6794974 15.3847388,15.6794974 14.6356344,14.9280904 C13.8865301,14.1766834 13.8865301,12.9422405 14.6356344,12.1909938 C15.3847388,11.4394265 16.6152612,11.4394265 17.3643656,12.1909938 C18.1134699,12.9422405 18.1134699,14.1766834 17.3643656,14.9280904 M25.9409283,13.5594619 C25.9409283,8.0780545 21.4901402,3.63486166 16.0000803,3.63486166 C10.5096992,3.63486166 6.05907173,8.0780545 6.05907173,13.5594619 C6.05907173,15.7073926 6.7449077,17.694044 7.9063808,19.3185388 L7.8620608,19.3185388 L15.9433956,28.968195 L23.6112377,19.9412111 C23.7782406,19.7427383 23.9368934,19.5370513 24.0883201,19.3260737 L24.0941009,19.3185388 L24.0936192,19.3185388 C25.2552529,17.694044 25.9409283,15.7073926 25.9409283,13.5594619" id="Fill-1" fill="#00ADBB" fill-rule="nonzero"></path>
        <rect id="Rectangle-Copy-6" stroke="#BD10E0" x="-331" y="-27" width="474" height="321"></rect>
    </g>
</svg>